<svg width="253" height="340" viewBox="0 0 253 340" fill="none" xmlns="http://www.w3.org/2000/svg">
<path d="M1.82129 92.7076C4.87281 120.171 3.8672 149.635 4.2436 177.488C4.61252 204.789 7.87706 231.871 7.87706 259.241C7.87706 283.263 7.87706 307.284 7.87706 331.305" stroke="#6C6C6C" stroke-width="3" stroke-linecap="round"/>
<path d="M1.82129 87.8629C27.644 87.8629 53.3116 84.2295 79.2678 84.2295C91.3855 84.2295 103.418 83.0183 115.67 83.0183" stroke="#6C6C6C" stroke-width="3" stroke-linecap="round"/>
<path d="M119.303 86.6519C119.303 129.708 127.781 173.435 127.781 216.245" stroke="#6C6C6C" stroke-width="3" stroke-linecap="round"/>
<path d="M127.781 150.843C147.254 150.843 166.514 152.054 185.984 152.054C198.043 152.054 209.87 150.843 221.982 150.843C229.619 150.843 233.152 151.987 233.152 160.532C233.152 168.18 237.31 175.131 237.929 182.871C238.399 188.744 238.955 194.733 239.813 200.568C241.616 212.828 240.376 225.187 241.899 237.373C244.074 254.773 246.474 272.698 246.474 290.126" stroke="#6C6C6C" stroke-width="3" stroke-linecap="round"/>
<path d="M127.781 218.668C127.781 226.559 127.058 234.802 128.051 242.622C129.375 253.049 131.415 264.351 131.415 274.852C131.415 286.017 133.837 296.192 133.837 307.082C133.837 314.439 134.637 322.262 132.895 329.421C132.517 330.975 132.319 336.635 130.338 337.092C114.272 340.799 94.7019 335.651 78.5279 335.073C60.3077 334.422 42.1914 334.626 24.2951 331.372C19.2102 330.448 14.1306 332.516 9.08838 332.516" stroke="#6C6C6C" stroke-width="3" stroke-linecap="round"/>
<path d="M246.893 291.877C246.893 295.143 248.899 298.03 248.99 301.315C249.042 303.201 249.454 305.214 249.068 307.092C248.602 309.352 248.143 311.618 247.766 313.899C247.234 317.123 247.067 320.319 247.067 323.58C247.067 326.175 246.749 328.997 247.242 331.552C247.539 333.088 247.847 334.524 247.951 336.086C247.983 336.564 248.181 336.958 248.281 337.407C248.389 337.894 249.02 337.304 249.339 337.145" stroke="#6C6C6C" stroke-width="3" stroke-linecap="round"/>
<path d="M83.0399 279.819C82.9058 282.5 82.379 285.085 82.379 287.805C82.379 291.862 82.379 295.919 82.379 299.976C82.379 305.322 82.0486 310.637 82.0486 315.983C82.0486 317.916 81.3877 319.788 81.3877 321.637C81.3877 322.715 81.7181 328.217 81.7181 324.758" stroke="#6C6C6C" stroke-width="3" stroke-linecap="round"/>
<path d="M83.7008 277.837C87.421 277.837 91.0949 276.845 94.7886 276.845C98.8028 276.845 102.817 276.845 106.831 276.845C108.153 276.845 109.505 276.443 110.796 276.515C111.867 276.574 111.734 279.925 111.769 280.645C112.152 288.494 112.118 296.334 112.118 304.198C112.118 305.508 112.729 328.351 111.42 328.393C103.352 328.653 95.4586 327.562 87.4273 327.089C86.3552 327.026 85.2704 327.071 84.1964 327.071C83.0289 327.071 82.7095 327.617 82.7095 326.41" stroke="#6C6C6C" stroke-width="3" stroke-linecap="round"/>
<path d="M106.501 305.593C105.967 305.593 103.076 305.291 103.197 306.254C103.26 306.764 105.579 306.793 105.803 306.401C106.147 305.8 104.701 305.923 105.179 305.923" stroke="#6C6C6C" stroke-width="3" stroke-linecap="round"/>
<path d="M22.2402 125.837C22.2402 129.469 23.6105 133.034 24.388 136.576C25.1131 139.88 26.1809 143.27 26.5175 146.636C26.7616 149.078 26.832 151.458 26.8663 153.924C26.8902 155.648 27.1967 157.336 27.1967 159.064C27.1967 159.986 27.5935 161.293 26.8663 160.202" stroke="#6C6C6C" stroke-width="3" stroke-linecap="round"/>
<path d="M21.5796 123.524C21.7182 122.97 24.2279 122.997 24.7003 122.937C28.8736 122.408 33.0756 122.288 37.2752 122.184C43.6094 122.028 49.9382 121.989 56.2751 121.872C57.1933 121.855 58.5485 121.001 58.8451 122.276C59.3338 124.378 59.6321 126.548 60.075 128.664C61.1884 133.984 61.6224 139.598 62.2229 145.002C62.5105 147.591 62.9962 150.139 62.7185 152.749C62.4681 155.103 62.2229 157.431 62.2229 159.799C62.2229 160.349 62.4594 161.156 61.7456 161.194C57.2921 161.428 52.8769 162.06 48.3997 162.167C43.1085 162.293 37.8497 161.669 32.7409 163.176C30.529 163.829 29.3374 163.507 27.197 163.507" stroke="#6C6C6C" stroke-width="3" stroke-linecap="round"/>
<path d="M28.188 144.011C34.6918 144.011 41.189 142.839 47.6835 142.689C52.0851 142.588 56.5097 141.698 60.9009 141.698" stroke="#6C6C6C" stroke-width="3" stroke-linecap="round"/>
<path d="M41.7358 123.524C41.7358 125.637 42.7427 127.717 43.4614 129.729C44.7684 133.389 45.2253 137.193 45.7745 141.037C46.6627 147.255 46.0315 153.909 46.0315 160.202" stroke="#6C6C6C" stroke-width="3" stroke-linecap="round"/>
<path d="M24.1509 125.814C25.2269 127.025 24.6815 129.591 27.0079 129.924C28.7307 130.17 28.7796 126.81 30.2529 128.283C30.6215 128.652 31.4224 130.223 31.9283 130.223C32.7189 130.223 33.8869 128.387 34.4678 127.895C36.5388 126.143 36.43 127.974 37.3425 129.148C38.374 130.474 40.6396 128.739 41.9278 128.671C43.2433 128.602 43.4018 130.259 44.6261 130.259C46.4373 130.259 48.3958 128.882 50.0403 128.248C51.8242 127.56 50.4501 128.232 51.4511 128.601C52.239 128.891 54.2519 126.785 55.1194 126.52C55.7619 126.324 56.2128 126.212 56.2128 125.497" stroke="#6C6C6C" stroke-linecap="round"/>
<path d="M72.6606 197.261C72.6606 200.893 74.0309 204.458 74.8085 208C75.5335 211.303 76.6013 214.694 76.9379 218.06C77.182 220.501 77.2525 222.882 77.2867 225.348C77.3106 227.071 77.6171 228.76 77.6171 230.488C77.6171 231.41 78.0139 232.717 77.2867 231.626" stroke="#6C6C6C" stroke-width="3" stroke-linecap="round"/>
<path d="M72 194.948C72.1386 194.394 74.6483 194.42 75.1208 194.361C79.2941 193.832 83.4961 193.712 87.6956 193.608C94.0299 193.452 100.359 193.413 106.695 193.296C107.614 193.279 108.969 192.424 109.266 193.7C109.754 195.801 110.053 197.972 110.495 200.088C111.609 205.408 112.043 211.022 112.643 216.426C112.931 219.015 113.417 221.562 113.139 224.173C112.888 226.527 112.643 228.855 112.643 231.222C112.643 231.773 112.88 232.58 112.166 232.617C107.713 232.852 103.297 233.484 98.8202 233.59C93.5289 233.716 88.2701 233.092 83.1613 234.6C80.9494 235.253 79.7578 234.93 77.6174 234.93" stroke="#6C6C6C" stroke-width="3" stroke-linecap="round"/>
<path d="M78.6084 215.435C85.1122 215.435 91.6094 214.262 98.104 214.113C102.505 214.012 106.93 213.122 111.321 213.122" stroke="#6C6C6C" stroke-width="3" stroke-linecap="round"/>
<path d="M92.1562 194.948C92.1562 197.06 93.1631 199.14 93.8818 201.153C95.1888 204.812 95.6458 208.617 96.1949 212.461C97.0831 218.679 96.4519 225.333 96.4519 231.626" stroke="#6C6C6C" stroke-width="3" stroke-linecap="round"/>
<path d="M74.5713 197.238C75.6473 198.449 75.102 201.015 77.4283 201.347C79.1511 201.593 79.2 198.234 80.6733 199.707C81.0419 200.076 81.8428 201.647 82.3487 201.647C83.1393 201.647 84.3074 199.811 84.8882 199.319C86.9592 197.567 86.8504 199.398 87.7629 200.571C88.7944 201.897 91.0601 200.163 92.3482 200.095C93.6638 200.026 93.8222 201.682 95.0465 201.682C96.8577 201.682 98.8162 200.306 100.461 199.672C102.245 198.984 100.871 199.656 101.872 200.025C102.659 200.315 104.672 198.209 105.54 197.944C106.182 197.747 106.633 197.636 106.633 196.921" stroke="#6C6C6C" stroke-linecap="round"/>
<path d="M24.6606 269.261C24.6606 272.893 26.0309 276.458 26.8085 280C27.5335 283.303 28.6013 286.694 28.9379 290.06C29.182 292.501 29.2525 294.882 29.2867 297.348C29.3106 299.071 29.6171 300.76 29.6171 302.488C29.6171 303.41 30.0139 304.717 29.2867 303.626" stroke="#6C6C6C" stroke-width="3" stroke-linecap="round"/>
<path d="M24 266.948C24.1386 266.394 26.6483 266.42 27.1208 266.361C31.2941 265.832 35.4961 265.712 39.6956 265.608C46.0299 265.452 52.3586 265.413 58.6955 265.296C59.6137 265.279 60.9689 264.424 61.2655 265.7C61.7543 267.801 62.0525 269.972 62.4955 272.088C63.6089 277.408 64.0428 283.022 64.6433 288.426C64.9309 291.015 65.4166 293.562 65.1389 296.173C64.8885 298.527 64.6433 300.855 64.6433 303.222C64.6433 303.773 64.8798 304.58 64.166 304.617C59.7125 304.852 55.2973 305.484 50.8202 305.59C45.5289 305.716 40.2701 305.092 35.1613 306.6C32.9494 307.253 31.7578 306.93 29.6174 306.93" stroke="#6C6C6C" stroke-width="3" stroke-linecap="round"/>
<path d="M30.6084 287.435C37.1122 287.435 43.6094 286.262 50.104 286.113C54.5055 286.012 58.9301 285.122 63.3213 285.122" stroke="#6C6C6C" stroke-width="3" stroke-linecap="round"/>
<path d="M44.1562 266.948C44.1562 269.06 45.1631 271.14 45.8818 273.153C47.1888 276.812 47.6458 280.617 48.1949 284.461C49.0831 290.679 48.4519 297.333 48.4519 303.626" stroke="#6C6C6C" stroke-width="3" stroke-linecap="round"/>
<path d="M26.5713 269.238C27.6473 270.449 27.102 273.015 29.4283 273.347C31.1511 273.593 31.2 270.234 32.6733 271.707C33.0419 272.076 33.8428 273.647 34.3487 273.647C35.1393 273.647 36.3074 271.811 36.8882 271.319C38.9592 269.567 38.8504 271.398 39.7629 272.571C40.7944 273.897 43.0601 272.163 44.3482 272.095C45.6638 272.026 45.8222 273.682 47.0465 273.682C48.8577 273.682 50.8162 272.306 52.4607 271.672C54.2446 270.984 52.8705 271.656 53.8715 272.025C54.6594 272.315 56.6723 270.209 57.5398 269.944C58.1823 269.747 58.6332 269.636 58.6332 268.921" stroke="#6C6C6C" stroke-linecap="round"/>
<path d="M21.6606 191.261C21.6606 194.893 23.0309 198.458 23.8085 202C24.5335 205.303 25.6013 208.694 25.9379 212.06C26.182 214.501 26.2525 216.882 26.2867 219.348C26.3106 221.071 26.6171 222.76 26.6171 224.488C26.6171 225.41 27.0139 226.717 26.2867 225.626" stroke="#6C6C6C" stroke-width="3" stroke-linecap="round"/>
<path d="M21 188.948C21.1386 188.394 23.6483 188.42 24.1208 188.361C28.2941 187.832 32.4961 187.712 36.6956 187.608C43.0299 187.452 49.3586 187.413 55.6955 187.296C56.6137 187.279 57.9689 186.424 58.2655 187.7C58.7543 189.801 59.0525 191.972 59.4955 194.088C60.6089 199.408 61.0428 205.022 61.6433 210.426C61.9309 213.015 62.4166 215.562 62.1389 218.173C61.8885 220.527 61.6433 222.855 61.6433 225.222C61.6433 225.773 61.8798 226.58 61.166 226.617C56.7125 226.852 52.2973 227.484 47.8202 227.59C42.5289 227.716 37.2701 227.092 32.1613 228.6C29.9494 229.253 28.7578 228.93 26.6174 228.93" stroke="#6C6C6C" stroke-width="3" stroke-linecap="round"/>
<path d="M27.6084 209.435C34.1122 209.435 40.6094 208.262 47.104 208.113C51.5055 208.012 55.9301 207.122 60.3213 207.122" stroke="#6C6C6C" stroke-width="3" stroke-linecap="round"/>
<path d="M41.1562 188.948C41.1562 191.06 42.1631 193.14 42.8818 195.153C44.1888 198.812 44.6458 202.617 45.1949 206.461C46.0831 212.679 45.4519 219.333 45.4519 225.626" stroke="#6C6C6C" stroke-width="3" stroke-linecap="round"/>
<path d="M23.5713 191.238C24.6473 192.449 24.102 195.015 26.4283 195.347C28.1511 195.593 28.2 192.234 29.6733 193.707C30.0419 194.076 30.8428 195.647 31.3487 195.647C32.1393 195.647 33.3074 193.811 33.8882 193.319C35.9592 191.567 35.8504 193.398 36.7629 194.571C37.7944 195.897 40.0601 194.163 41.3482 194.095C42.6638 194.026 42.8222 195.682 44.0465 195.682C45.8577 195.682 47.8162 194.306 49.4607 193.672C51.2446 192.984 49.8705 193.656 50.8715 194.025C51.6594 194.315 53.6723 192.209 54.5398 191.944C55.1823 191.747 55.6332 191.636 55.6332 190.921" stroke="#6C6C6C" stroke-linecap="round"/>
<path d="M76.6606 147.261C76.6606 150.893 78.0309 154.458 78.8085 158C79.5335 161.303 80.6013 164.694 80.9379 168.06C81.182 170.501 81.2525 172.882 81.2867 175.348C81.3106 177.071 81.6171 178.76 81.6171 180.488C81.6171 181.41 82.0139 182.717 81.2867 181.626" stroke="#6C6C6C" stroke-width="3" stroke-linecap="round"/>
<path d="M76 144.948C76.1386 144.394 78.6483 144.42 79.1208 144.361C83.2941 143.832 87.4961 143.712 91.6956 143.608C98.0299 143.452 104.359 143.413 110.695 143.296C111.614 143.279 112.969 142.424 113.266 143.7C113.754 145.801 114.053 147.972 114.495 150.088C115.609 155.408 116.043 161.022 116.643 166.426C116.931 169.015 117.417 171.562 117.139 174.173C116.888 176.527 116.643 178.855 116.643 181.222C116.643 181.773 116.88 182.58 116.166 182.617C111.713 182.852 107.297 183.484 102.82 183.59C97.5289 183.716 92.2701 183.092 87.1613 184.6C84.9494 185.253 83.7578 184.93 81.6174 184.93" stroke="#6C6C6C" stroke-width="3" stroke-linecap="round"/>
<path d="M82.6084 165.435C89.1122 165.435 95.6094 164.262 102.104 164.113C106.505 164.012 110.93 163.122 115.321 163.122" stroke="#6C6C6C" stroke-width="3" stroke-linecap="round"/>
<path d="M96.1562 144.948C96.1562 147.06 97.1631 149.14 97.8818 151.153C99.1888 154.812 99.6458 158.617 100.195 162.461C101.083 168.679 100.452 175.333 100.452 181.626" stroke="#6C6C6C" stroke-width="3" stroke-linecap="round"/>
<path d="M78.5713 147.238C79.6473 148.449 79.102 151.015 81.4283 151.347C83.1511 151.593 83.2 148.234 84.6733 149.707C85.0419 150.076 85.8428 151.647 86.3487 151.647C87.1393 151.647 88.3074 149.811 88.8882 149.319C90.9592 147.567 90.8504 149.398 91.7629 150.571C92.7944 151.897 95.0601 150.163 96.3482 150.095C97.6638 150.026 97.8222 151.682 99.0465 151.682C100.858 151.682 102.816 150.306 104.461 149.672C106.245 148.984 104.871 149.656 105.872 150.025C106.659 150.315 108.672 148.209 109.54 147.944C110.182 147.747 110.633 147.636 110.633 146.921" stroke="#6C6C6C" stroke-linecap="round"/>
<path d="M161.13 172.003C152.84 174.964 147.887 181.154 145.738 189.502C144.299 195.092 144.612 201.087 146.616 206.533C149.503 214.379 160.554 213.981 167.041 212.093C175.712 209.568 188.351 203.157 188.285 192.545C188.23 183.494 177.881 177.649 170.201 175.69C161.725 173.529 154.508 173.238 146.909 177.797" stroke="#6C6C6C" stroke-width="3" stroke-linecap="round"/>
<path d="M216.435 214.141C206.174 214.141 196.53 223.28 195.484 233.629C194.851 239.884 194.304 247.898 198.527 253.06C203.094 258.641 212.365 255.769 218.191 254.406C229.926 251.659 234.344 240.37 234.344 229.445C234.344 223.888 230.103 218.01 224.98 215.721C219.955 213.476 211.796 211.209 206.955 214.668" stroke="#6C6C6C" stroke-width="3" stroke-linecap="round"/>
<path d="M140.062 236.263C140.062 239.792 141.051 243.601 141.759 247.031C143.438 255.171 144.728 263.541 146.938 271.553C147.765 274.551 149.032 277.456 149.747 280.478C150.322 282.906 149.913 285.421 150.186 287.881C150.752 292.972 151.571 298.03 150.859 303.156C150.105 308.584 150.069 313.82 150.069 319.28C150.069 320.909 150.069 322.538 150.069 324.167C150.069 326.13 153.21 325.245 154.517 325.161C164.968 324.493 176.39 322.632 186.764 323.962C189.918 324.366 192.207 325.891 192.207 322.06C192.207 315.785 192.537 309.414 192.09 303.156C191.497 294.866 189.828 286.519 188.227 278.371C186.821 271.212 186.493 264.006 185.359 256.805C184.42 250.835 184.223 244.68 183.808 238.663C183.651 236.379 183.888 233.803 181.438 233.103C174.352 231.078 165.716 232.049 158.438 232.049C151.007 232.049 143.739 233.629 136.375 233.629" stroke="#6C6C6C" stroke-width="3" stroke-linecap="round"/>
<path d="M161.13 234.156C161.13 242.48 162.953 250.969 163.881 259.205C165.036 269.457 166.37 279.691 167.451 289.959C168.195 297.025 169.031 304.25 169.031 311.35C169.031 315.145 170.085 318.792 170.085 322.645" stroke="#6C6C6C" stroke-width="3" stroke-linecap="round"/>
<path d="M150.069 279.454C152.305 281.441 157.082 280.507 159.813 280.507C163.939 280.507 168.065 280.507 172.191 280.507C175.029 280.507 177.742 279.981 180.589 279.981C182.135 279.981 183.612 278.927 185.359 278.927" stroke="#6C6C6C" stroke-width="3" stroke-linecap="round"/>
<path d="M218.016 312.637C218.016 319.987 220.123 327.424 220.123 334.76" stroke="#6C6C6C" stroke-width="2" stroke-linecap="round"/>
<path d="M219.596 312.111C223.528 312.111 227.304 311.833 231.184 311.174C233.069 310.854 235.924 309.38 235.924 311.408C235.924 319.242 233.818 326.866 233.818 334.759" stroke="#6C6C6C" stroke-width="2" stroke-linecap="round"/>
<path d="M230.657 325.805V326.332" stroke="#6C6C6C" stroke-width="2" stroke-linecap="round"/>
<path d="M31.2035 87.8227C30.8729 81.8717 28.8991 75.8292 27.0573 70.2014C25.2752 64.7561 24.7005 58.9849 22.9111 53.6167" stroke="#6C6C6C" stroke-linecap="round"/>
<path d="M74.7383 85.7497C74.7383 70.5189 64.8913 58.8003 61.2632 44.2878" stroke="#6C6C6C" stroke-linecap="round"/>
<path d="M91.3232 0.75293C91.3232 8.68818 93.7217 17.1105 94.4329 25.1118C95.3906 35.8862 98.2775 46.4447 98.5791 57.3023C98.8058 65.4656 101.689 89.7701 101.689 81.6036" stroke="#6C6C6C" stroke-linecap="round"/>
<path d="M99.6157 26.6665H124.493" stroke="#6C6C6C" stroke-linecap="round"/>
<path d="M86.1403 38.0685C80.4415 38.0685 74.4324 37.032 68.519 37.032" stroke="#6C6C6C" stroke-linecap="round"/>
<path d="M132.158 337.851C159.243 337.851 186.311 336.457 213.418 336.457C225.995 336.457 238.565 336.922 251.105 336.922" stroke="#6C6C6C" stroke-width="3" stroke-linecap="round"/>
</svg>
