<svg aria-hidden="true" style="position: absolute; width: 0; height: 0; overflow: hidden;" version="1.1" xmlns="http://www.w3.org/2000/svg" xmlns:xlink="http://www.w3.org/1999/xlink">
<defs>
<symbol id="icon-instagram" viewBox="0 0 32 32">
<path fill="none" stroke="#999" style="stroke: var(--color1, #999)" stroke-linejoin="round" stroke-linecap="round" stroke-miterlimit="4" stroke-width="1.3333" d="M22.667 2.667h-13.333c-3.682 0-6.667 2.985-6.667 6.667v13.333c0 3.682 2.985 6.667 6.667 6.667h13.333c3.682 0 6.667-2.985 6.667-6.667v-13.333c0-3.682-2.985-6.667-6.667-6.667z"></path>
<path fill="none" stroke="#999" style="stroke: var(--color1, #999)" stroke-linejoin="round" stroke-linecap="round" stroke-miterlimit="4" stroke-width="1.3333" d="M21.334 15.16c0.165 1.11-0.025 2.243-0.542 3.239s-1.334 1.803-2.336 2.308c-1.002 0.504-2.138 0.68-3.245 0.502s-2.131-0.701-2.924-1.494c-0.793-0.793-1.316-1.816-1.494-2.924s-0.003-2.243 0.502-3.245c0.504-1.002 1.312-1.82 2.308-2.336s2.129-0.706 3.239-0.542c1.132 0.168 2.18 0.695 2.989 1.504s1.337 1.857 1.504 2.989z"></path>
<path fill="none" stroke="#999" style="stroke: var(--color1, #999)" stroke-linejoin="round" stroke-linecap="round" stroke-miterlimit="4" stroke-width="1.3333" d="M23.333 8.667h0.021"></path>
</symbol>
<symbol id="icon-linkedin" viewBox="0 0 32 32">
<path fill="none" stroke="#999" style="stroke: var(--color1, #999)" stroke-linejoin="round" stroke-linecap="round" stroke-miterlimit="4" stroke-width="1.3333" d="M21.333 10.667c2.122 0 4.157 0.843 5.657 2.343s2.343 3.535 2.343 5.657v9.333h-5.333v-9.333c0-0.707-0.281-1.385-0.781-1.886s-1.178-0.781-1.886-0.781c-0.707 0-1.385 0.281-1.886 0.781s-0.781 1.178-0.781 1.886v9.333h-5.333v-9.333c0-2.122 0.843-4.157 2.343-5.657s3.535-2.343 5.657-2.343z"></path>
<path fill="none" stroke="#999" style="stroke: var(--color1, #999)" stroke-linejoin="round" stroke-linecap="round" stroke-miterlimit="4" stroke-width="1.3333" d="M8 12h-5.333v16h5.333v-16z"></path>
<path fill="none" stroke="#999" style="stroke: var(--color1, #999)" stroke-linejoin="round" stroke-linecap="round" stroke-miterlimit="4" stroke-width="1.3333" d="M5.333 8c1.473 0 2.667-1.194 2.667-2.667s-1.194-2.667-2.667-2.667c-1.473 0-2.667 1.194-2.667 2.667s1.194 2.667 2.667 2.667z"></path>
</symbol>
<symbol id="icon-aboutUs" viewBox="0 0 24 32">
<path fill="none" stroke="#6c6c6c" style="stroke: var(--color1, #6c6c6c)" stroke-linejoin="miter" stroke-linecap="round" stroke-miterlimit="4" stroke-width="0.2759" d="M0.368 8.882c0.279 2.543 0.187 5.271 0.222 7.85 0.034 2.528 0.332 5.035 0.332 7.569 0 2.224 0 4.448 0 6.672"></path>
<path fill="none" stroke="#6c6c6c" style="stroke: var(--color1, #6c6c6c)" stroke-linejoin="miter" stroke-linecap="round" stroke-miterlimit="4" stroke-width="0.2759" d="M0.368 8.433c2.362 0 4.71-0.336 7.085-0.336 1.109 0 2.209-0.112 3.33-0.112"></path>
<path fill="none" stroke="#6c6c6c" style="stroke: var(--color1, #6c6c6c)" stroke-linejoin="miter" stroke-linecap="round" stroke-miterlimit="4" stroke-width="0.2759" d="M11.115 8.321c0 3.986 0.776 8.035 0.776 11.999"></path>
<path fill="none" stroke="#6c6c6c" style="stroke: var(--color1, #6c6c6c)" stroke-linejoin="miter" stroke-linecap="round" stroke-miterlimit="4" stroke-width="0.2759" d="M11.891 14.264c1.781 0 3.543 0.112 5.324 0.112 1.103 0 2.185-0.112 3.293-0.112 0.699 0 1.022 0.106 1.022 0.897 0 0.708 0.38 1.352 0.437 2.068 0.043 0.544 0.094 1.098 0.172 1.638 0.165 1.135 0.051 2.279 0.191 3.408 0.199 1.611 0.419 3.271 0.419 4.884"></path>
<path fill="none" stroke="#6c6c6c" style="stroke: var(--color1, #6c6c6c)" stroke-linejoin="miter" stroke-linecap="round" stroke-miterlimit="4" stroke-width="0.2759" d="M11.891 20.544c0 0.731-0.066 1.494 0.025 2.218 0.121 0.965 0.308 2.012 0.308 2.984 0 1.034 0.222 1.976 0.222 2.984 0 0.681 0.073 1.405-0.086 2.068-0.035 0.144-0.053 0.668-0.234 0.71-1.47 0.343-3.26-0.133-4.74-0.187-1.667-0.060-3.324-0.041-4.961-0.343-0.465-0.086-0.93 0.106-1.391 0.106"></path>
<path fill="none" stroke="#6c6c6c" style="stroke: var(--color1, #6c6c6c)" stroke-linejoin="miter" stroke-linecap="round" stroke-miterlimit="4" stroke-width="0.2759" d="M22.787 27.323c0 0.302 0.184 0.57 0.192 0.874 0.005 0.175 0.042 0.361 0.007 0.535-0.043 0.209-0.085 0.419-0.119 0.63-0.049 0.299-0.064 0.594-0.064 0.896 0 0.24-0.029 0.502 0.016 0.738 0.027 0.142 0.055 0.275 0.065 0.42 0.003 0.044 0.021 0.081 0.030 0.122 0.010 0.045 0.068-0.009 0.097-0.024"></path>
<path fill="none" stroke="#6c6c6c" style="stroke: var(--color1, #6c6c6c)" stroke-linejoin="miter" stroke-linecap="round" stroke-miterlimit="4" stroke-width="0.2759" d="M7.798 26.206c-0.012 0.248-0.060 0.488-0.060 0.739 0 0.376 0 0.751 0 1.127 0 0.495-0.030 0.987-0.030 1.482 0 0.179-0.060 0.352-0.060 0.523 0 0.1 0.030 0.609 0.030 0.289"></path>
<path fill="none" stroke="#6c6c6c" style="stroke: var(--color1, #6c6c6c)" stroke-linejoin="miter" stroke-linecap="round" stroke-miterlimit="4" stroke-width="0.2759" d="M7.858 26.023c0.34 0 0.676-0.092 1.014-0.092 0.367 0 0.734 0 1.102 0 0.121 0 0.245-0.037 0.363-0.031 0.098 0.005 0.086 0.316 0.089 0.382 0.035 0.727 0.032 1.453 0.032 2.181 0 0.121 0.056 2.236-0.064 2.24-0.738 0.024-1.46-0.077-2.195-0.121-0.098-0.006-0.197-0.002-0.296-0.002-0.107 0-0.136 0.051-0.136-0.061"></path>
<path fill="none" stroke="#6c6c6c" style="stroke: var(--color1, #6c6c6c)" stroke-linejoin="miter" stroke-linecap="round" stroke-miterlimit="4" stroke-width="0.2759" d="M9.944 28.592c-0.049 0-0.313-0.028-0.302 0.061 0.006 0.047 0.218 0.050 0.238 0.014 0.031-0.056-0.101-0.044-0.057-0.044"></path>
<path fill="none" stroke="#6c6c6c" style="stroke: var(--color1, #6c6c6c)" stroke-linejoin="miter" stroke-linecap="round" stroke-miterlimit="4" stroke-width="0.2759" d="M2.236 11.949c0 0.336 0.125 0.666 0.196 0.994 0.066 0.306 0.164 0.62 0.195 0.931 0.022 0.226 0.029 0.446 0.032 0.675 0.002 0.16 0.030 0.316 0.030 0.476 0 0.085 0.036 0.206-0.030 0.105"></path>
<path fill="none" stroke="#6c6c6c" style="stroke: var(--color1, #6c6c6c)" stroke-linejoin="miter" stroke-linecap="round" stroke-miterlimit="4" stroke-width="0.2759" d="M2.175 11.735c0.013-0.051 0.242-0.049 0.285-0.054 0.382-0.049 0.766-0.060 1.15-0.070 0.579-0.014 1.158-0.018 1.738-0.029 0.084-0.002 0.208-0.081 0.235 0.037 0.045 0.195 0.072 0.396 0.112 0.592 0.102 0.492 0.142 1.012 0.197 1.513 0.026 0.24 0.071 0.476 0.045 0.717-0.023 0.218-0.045 0.433-0.045 0.653 0 0.051 0.022 0.126-0.044 0.129-0.407 0.022-0.811 0.080-1.221 0.090-0.484 0.012-0.965-0.046-1.433 0.093-0.202 0.060-0.311 0.031-0.507 0.031"></path>
<path fill="none" stroke="#6c6c6c" style="stroke: var(--color1, #6c6c6c)" stroke-linejoin="miter" stroke-linecap="round" stroke-miterlimit="4" stroke-width="0.2759" d="M2.78 13.632c0.595 0 1.189-0.109 1.783-0.122 0.403-0.009 0.807-0.092 1.209-0.092"></path>
<path fill="none" stroke="#6c6c6c" style="stroke: var(--color1, #6c6c6c)" stroke-linejoin="miter" stroke-linecap="round" stroke-miterlimit="4" stroke-width="0.2759" d="M4.019 11.735c0 0.196 0.092 0.388 0.158 0.575 0.12 0.339 0.161 0.691 0.212 1.047 0.081 0.576 0.024 1.192 0.024 1.774"></path>
<path fill="none" stroke="#6c6c6c" style="stroke: var(--color1, #6c6c6c)" stroke-linejoin="miter" stroke-linecap="round" stroke-miterlimit="4" stroke-width="0.2759" d="M6.848 18.562c0 0.336 0.125 0.666 0.196 0.994 0.066 0.306 0.164 0.62 0.195 0.931 0.022 0.226 0.029 0.446 0.032 0.675 0.002 0.16 0.030 0.316 0.030 0.476 0 0.085 0.036 0.206-0.030 0.105"></path>
<path fill="none" stroke="#6c6c6c" style="stroke: var(--color1, #6c6c6c)" stroke-linejoin="miter" stroke-linecap="round" stroke-miterlimit="4" stroke-width="0.2759" d="M6.788 18.348c0.013-0.051 0.242-0.049 0.285-0.054 0.382-0.049 0.766-0.060 1.15-0.070 0.579-0.014 1.158-0.018 1.738-0.029 0.084-0.002 0.208-0.081 0.235 0.037 0.045 0.195 0.072 0.396 0.113 0.592 0.102 0.492 0.142 1.012 0.197 1.513 0.026 0.24 0.071 0.476 0.045 0.717-0.023 0.218-0.045 0.433-0.045 0.653 0 0.051 0.022 0.126-0.044 0.129-0.407 0.022-0.811 0.080-1.221 0.090-0.484 0.012-0.965-0.046-1.433 0.093-0.202 0.060-0.311 0.031-0.507 0.031"></path>
<path fill="none" stroke="#6c6c6c" style="stroke: var(--color1, #6c6c6c)" stroke-linejoin="miter" stroke-linecap="round" stroke-miterlimit="4" stroke-width="0.2759" d="M7.392 20.245c0.595 0 1.189-0.109 1.783-0.122 0.403-0.009 0.807-0.092 1.209-0.092"></path>
<path fill="none" stroke="#6c6c6c" style="stroke: var(--color1, #6c6c6c)" stroke-linejoin="miter" stroke-linecap="round" stroke-miterlimit="4" stroke-width="0.2759" d="M8.632 18.348c0 0.196 0.092 0.388 0.158 0.575 0.12 0.339 0.161 0.691 0.212 1.047 0.081 0.576 0.024 1.192 0.024 1.774"></path>
<path fill="none" stroke="#6c6c6c" style="stroke: var(--color1, #6c6c6c)" stroke-linejoin="miter" stroke-linecap="round" stroke-miterlimit="4" stroke-width="0.2759" d="M2.457 25.229c0 0.336 0.125 0.666 0.196 0.994 0.066 0.306 0.164 0.62 0.195 0.931 0.022 0.226 0.029 0.446 0.032 0.675 0.002 0.16 0.030 0.316 0.030 0.476 0 0.085 0.036 0.206-0.030 0.105"></path>
<path fill="none" stroke="#6c6c6c" style="stroke: var(--color1, #6c6c6c)" stroke-linejoin="miter" stroke-linecap="round" stroke-miterlimit="4" stroke-width="0.2759" d="M2.397 25.014c0.013-0.051 0.242-0.049 0.285-0.054 0.382-0.049 0.766-0.060 1.15-0.070 0.579-0.015 1.158-0.018 1.738-0.029 0.084-0.002 0.208-0.081 0.235 0.037 0.045 0.195 0.072 0.396 0.112 0.591 0.102 0.493 0.142 1.012 0.197 1.513 0.026 0.24 0.071 0.476 0.045 0.717-0.023 0.218-0.045 0.433-0.045 0.653 0 0.051 0.022 0.126-0.044 0.129-0.407 0.022-0.811 0.080-1.221 0.090-0.484 0.012-0.965-0.046-1.432 0.093-0.202 0.060-0.311 0.031-0.507 0.031"></path>
<path fill="none" stroke="#6c6c6c" style="stroke: var(--color1, #6c6c6c)" stroke-linejoin="miter" stroke-linecap="round" stroke-miterlimit="4" stroke-width="0.2759" d="M3.001 26.911c0.595 0 1.189-0.109 1.783-0.122 0.403-0.009 0.807-0.092 1.209-0.092"></path>
<path fill="none" stroke="#6c6c6c" style="stroke: var(--color1, #6c6c6c)" stroke-linejoin="miter" stroke-linecap="round" stroke-miterlimit="4" stroke-width="0.2759" d="M4.241 25.014c0 0.196 0.092 0.388 0.158 0.575 0.12 0.339 0.161 0.691 0.212 1.047 0.081 0.576 0.024 1.192 0.024 1.774"></path>
<path fill="none" stroke="#6c6c6c" style="stroke: var(--color1, #6c6c6c)" stroke-linejoin="miter" stroke-linecap="round" stroke-miterlimit="4" stroke-width="0.2759" d="M2.183 18.007c0 0.336 0.125 0.666 0.196 0.994 0.066 0.306 0.164 0.62 0.195 0.931 0.022 0.226 0.029 0.446 0.032 0.675 0.002 0.16 0.030 0.316 0.030 0.476 0 0.085 0.036 0.206-0.030 0.105"></path>
<path fill="none" stroke="#6c6c6c" style="stroke: var(--color1, #6c6c6c)" stroke-linejoin="miter" stroke-linecap="round" stroke-miterlimit="4" stroke-width="0.2759" d="M2.122 17.793c0.013-0.051 0.242-0.049 0.285-0.054 0.382-0.049 0.766-0.060 1.15-0.070 0.579-0.015 1.158-0.018 1.738-0.029 0.084-0.002 0.208-0.081 0.235 0.037 0.045 0.195 0.072 0.396 0.112 0.591 0.102 0.493 0.142 1.012 0.197 1.513 0.026 0.24 0.071 0.476 0.045 0.717-0.023 0.218-0.045 0.433-0.045 0.653 0 0.051 0.022 0.126-0.044 0.129-0.407 0.022-0.811 0.080-1.221 0.090-0.484 0.012-0.965-0.046-1.432 0.093-0.202 0.060-0.311 0.031-0.507 0.031"></path>
<path fill="none" stroke="#6c6c6c" style="stroke: var(--color1, #6c6c6c)" stroke-linejoin="miter" stroke-linecap="round" stroke-miterlimit="4" stroke-width="0.2759" d="M2.727 19.689c0.595 0 1.189-0.109 1.783-0.122 0.403-0.009 0.807-0.092 1.209-0.092"></path>
<path fill="none" stroke="#6c6c6c" style="stroke: var(--color1, #6c6c6c)" stroke-linejoin="miter" stroke-linecap="round" stroke-miterlimit="4" stroke-width="0.2759" d="M3.966 17.792c0 0.196 0.092 0.388 0.158 0.575 0.12 0.339 0.161 0.691 0.212 1.047 0.081 0.576 0.024 1.192 0.024 1.774"></path>
<path fill="none" stroke="#6c6c6c" style="stroke: var(--color1, #6c6c6c)" stroke-linejoin="miter" stroke-linecap="round" stroke-miterlimit="4" stroke-width="0.2759" d="M7.214 13.933c0 0.336 0.125 0.666 0.197 0.994 0.066 0.306 0.164 0.62 0.195 0.931 0.022 0.226 0.029 0.446 0.032 0.675 0.002 0.16 0.030 0.316 0.030 0.476 0 0.085 0.036 0.206-0.030 0.105"></path>
<path fill="none" stroke="#6c6c6c" style="stroke: var(--color1, #6c6c6c)" stroke-linejoin="miter" stroke-linecap="round" stroke-miterlimit="4" stroke-width="0.2759" d="M7.154 13.719c0.013-0.051 0.242-0.049 0.285-0.054 0.382-0.049 0.766-0.060 1.15-0.070 0.579-0.014 1.158-0.018 1.738-0.029 0.084-0.002 0.208-0.081 0.235 0.037 0.045 0.195 0.072 0.396 0.113 0.591 0.102 0.492 0.142 1.012 0.197 1.513 0.026 0.24 0.071 0.476 0.045 0.717-0.023 0.218-0.045 0.433-0.045 0.653 0 0.051 0.022 0.126-0.044 0.129-0.407 0.022-0.811 0.080-1.221 0.090-0.484 0.012-0.965-0.046-1.432 0.093-0.202 0.060-0.311 0.031-0.507 0.031"></path>
<path fill="none" stroke="#6c6c6c" style="stroke: var(--color1, #6c6c6c)" stroke-linejoin="miter" stroke-linecap="round" stroke-miterlimit="4" stroke-width="0.2759" d="M7.758 15.616c0.595 0 1.189-0.109 1.783-0.122 0.403-0.009 0.807-0.092 1.209-0.092"></path>
<path fill="none" stroke="#6c6c6c" style="stroke: var(--color1, #6c6c6c)" stroke-linejoin="miter" stroke-linecap="round" stroke-miterlimit="4" stroke-width="0.2759" d="M8.998 13.719c0 0.196 0.092 0.388 0.158 0.575 0.12 0.339 0.161 0.691 0.212 1.047 0.081 0.576 0.024 1.192 0.024 1.775"></path>
<path fill="none" stroke="#6c6c6c" style="stroke: var(--color1, #6c6c6c)" stroke-linejoin="miter" stroke-linecap="round" stroke-miterlimit="4" stroke-width="0.2759" d="M14.942 16.224c-0.758 0.274-1.211 0.847-1.408 1.62-0.132 0.518-0.103 1.073 0.080 1.577 0.264 0.726 1.275 0.69 1.868 0.515 0.793-0.234 1.949-0.827 1.943-1.81-0.005-0.838-0.952-1.379-1.654-1.561-0.775-0.2-1.436-0.227-2.131 0.195"></path>
<path fill="none" stroke="#6c6c6c" style="stroke: var(--color1, #6c6c6c)" stroke-linejoin="miter" stroke-linecap="round" stroke-miterlimit="4" stroke-width="0.2759" d="M20.001 20.125c-0.939 0-1.821 0.846-1.917 1.804-0.058 0.579-0.108 1.321 0.278 1.799 0.418 0.517 1.266 0.251 1.799 0.125 1.073-0.254 1.478-1.3 1.478-2.311 0-0.514-0.388-1.059-0.857-1.271-0.46-0.208-1.206-0.418-1.649-0.098"></path>
<path fill="none" stroke="#6c6c6c" style="stroke: var(--color1, #6c6c6c)" stroke-linejoin="miter" stroke-linecap="round" stroke-miterlimit="4" stroke-width="0.2759" d="M13.014 22.173c0 0.327 0.091 0.679 0.155 0.997 0.154 0.754 0.272 1.529 0.474 2.27 0.076 0.278 0.192 0.547 0.257 0.826 0.053 0.225 0.015 0.458 0.040 0.685 0.052 0.471 0.127 0.94 0.062 1.414-0.069 0.503-0.072 0.987-0.072 1.493 0 0.151 0 0.302 0 0.452 0 0.182 0.287 0.1 0.407 0.092 0.956-0.062 2.001-0.234 2.95-0.111 0.289 0.037 0.498 0.179 0.498-0.176 0-0.581 0.030-1.171-0.011-1.75-0.054-0.768-0.207-1.54-0.353-2.295-0.129-0.663-0.159-1.33-0.262-1.997-0.086-0.553-0.104-1.123-0.142-1.68-0.014-0.211 0.007-0.45-0.217-0.515-0.648-0.187-1.438-0.098-2.104-0.098-0.68 0-1.345 0.146-2.018 0.146"></path>
<path fill="none" stroke="#6c6c6c" style="stroke: var(--color1, #6c6c6c)" stroke-linejoin="miter" stroke-linecap="round" stroke-miterlimit="4" stroke-width="0.2759" d="M14.942 21.978c0 0.771 0.167 1.557 0.252 2.319 0.106 0.949 0.228 1.897 0.327 2.848 0.068 0.654 0.145 1.323 0.145 1.98 0 0.351 0.096 0.689 0.096 1.046"></path>
<path fill="none" stroke="#6c6c6c" style="stroke: var(--color1, #6c6c6c)" stroke-linejoin="miter" stroke-linecap="round" stroke-miterlimit="4" stroke-width="0.2759" d="M13.93 26.172c0.205 0.184 0.642 0.098 0.891 0.098 0.377 0 0.755 0 1.132 0 0.26 0 0.508-0.049 0.768-0.049 0.141 0 0.277-0.098 0.436-0.098"></path>
<path fill="none" stroke="#6c6c6c" style="stroke: var(--color1, #6c6c6c)" stroke-linejoin="miter" stroke-linecap="round" stroke-miterlimit="4" stroke-width="0.2759" d="M12.291 31.579c2.478 0 4.954-0.129 7.434-0.129 1.151 0 2.3 0.043 3.448 0.043"></path>
</symbol>
</defs>
</svg>
